<svg width="500" height="500" viewBox="0 0 500 500" fill="none" xmlns="http://www.w3.org/2000/svg">
<path fill-rule="evenodd" clip-rule="evenodd" d="M250 430.315L277.405 406.386C375.289 320.915 425 245.28 425 175C425 75.5353 347.413 0 250 0C152.587 0 75 75.5353 75 175C75 245.28 124.711 320.915 222.595 406.386L250 430.315ZM126.437 362.974C113.838 348.433 102.404 334.139 92.1388 320.085C35.9185 337.145 0 364.509 0 400C0 462.669 111.993 500 250 500C388.007 500 500 462.669 500 400C500 364.509 464.082 337.145 407.861 320.085C397.596 334.139 386.162 348.433 373.563 362.974C420.119 373.46 450 388.342 450 400C450 420.174 360.521 450 250 450C139.479 450 50 420.174 50 400C50 388.342 79.8813 373.46 126.437 362.974ZM311.816 108.259C310.622 115.259 310 122.547 310 130.022C310 133.829 310.172 137.591 310.488 141.276C317.025 140.907 323.803 140.723 330.778 140.704C326.841 128.508 320.303 117.473 311.816 108.259ZM247.502 80C270.204 80 290.91 88.7004 306.479 102.938C304.691 111.573 303.751 120.661 303.751 130.025C303.751 133.983 303.919 137.881 304.241 141.702C297.479 142.205 290.96 142.89 284.67 143.737C273.392 115.64 255.27 93.3591 232.658 81.285C237.486 80.4565 242.439 80 247.502 80ZM280.651 150.602C271.232 152.022 262.373 153.816 254.039 155.907C260.03 169.191 263.442 184.316 263.442 200.364C263.442 221.204 258.792 239.934 250.024 255C257.43 254.784 264.773 253.656 271.892 251.589C276.786 250.17 281.542 248.316 286.114 246.065C286.454 245.897 286.789 245.722 287.126 245.547L287.127 245.547C287.253 245.481 287.38 245.415 287.507 245.349L288.229 241.666C289.714 232.343 291.248 222.702 291.248 212.869C291.248 190.488 287.473 169.295 280.651 150.602ZM311.191 147.498C318.053 147.116 325.175 146.938 332.534 146.954C334.131 153.56 335 160.447 335 167.538C335 176.492 333.644 185.136 331.134 193.277C321.291 184.842 313.934 167.682 311.191 147.498ZM181.141 111.237H181.14C180.985 111.231 180.828 111.225 180.672 111.22C170.706 123.072 163.837 137.487 161.206 153.125C161.198 153.183 161.187 153.238 161.176 153.294L161.172 153.319C160.812 155.483 160.55 157.671 160.353 159.875C160.323 160.227 160.298 160.586 160.273 160.939L160.273 160.945L160.272 160.96C160.106 163.139 160 165.327 160 167.538C160 176.588 161.381 185.323 163.941 193.542C181.825 178.442 208.059 162.27 245.045 151.843C231.655 127.442 208.493 111.264 182.194 111.264C181.841 111.264 181.492 111.25 181.141 111.237H181.141H181.141ZM222.77 83.5833L222.816 83.5706C222.842 83.5633 222.869 83.556 222.896 83.5484C247.023 93.6497 266.451 115.797 278.335 144.653C268.745 146.144 259.72 148.014 251.233 150.187C237.558 124.363 213.677 106.727 186.25 105.136C186.288 105.099 186.324 105.061 186.36 105.022C186.377 105.004 186.394 104.986 186.411 104.967C186.463 104.91 186.515 104.853 186.571 104.798L186.589 104.782C186.633 104.741 186.676 104.7 186.719 104.66C186.751 104.629 186.783 104.598 186.816 104.567C186.838 104.545 186.861 104.523 186.884 104.501C189.987 101.506 193.321 98.7457 196.852 96.2256L196.977 96.1363L197.17 95.9985C197.388 95.8418 197.606 95.6852 197.827 95.5314C199.474 94.3935 201.161 93.3054 202.89 92.2768C203.095 92.1555 203.302 92.0381 203.508 91.9208L203.509 91.9203C203.669 91.8292 203.83 91.7382 203.989 91.6452C205.758 90.6232 207.558 89.6445 209.408 88.7473L209.44 88.7304C209.481 88.7078 209.522 88.6859 209.564 88.6659C211.505 87.7279 213.502 86.8775 215.527 86.0805C215.677 86.0226 215.826 85.9632 215.976 85.9038L215.977 85.9031C216.126 85.8439 216.274 85.7848 216.424 85.7272C218.458 84.952 220.527 84.2487 222.636 83.6232C222.68 83.6087 222.725 83.5958 222.77 83.5833ZM304.907 147.914C298.713 148.37 292.723 148.98 286.938 149.73C293.741 168.801 297.501 190.26 297.501 212.873C297.501 222.696 296.073 232.112 294.623 241.241C310.032 231.346 322.141 216.762 328.931 199.508C316.8 190.451 307.951 171.099 304.907 147.914ZM166.206 199.842C183.747 184.62 210.09 167.998 247.933 157.521C253.83 170.242 257.195 184.842 257.196 200.364C257.196 221.567 252.168 240.366 242.721 254.941C207.943 253.055 178.522 230.755 166.206 199.842ZM191.256 220.689C191.94 220.689 192.631 220.464 193.209 220.001C194.553 218.919 194.771 216.952 193.69 215.605C192.959 214.695 192.159 213.739 191.331 212.754L191.294 212.71C188.871 209.823 186.132 206.558 184.668 203.647C183.89 202.106 182.012 201.48 180.471 202.262C178.931 203.04 178.309 204.919 179.087 206.461C180.885 210.033 183.886 213.608 186.536 216.766L186.546 216.777C187.343 217.725 188.112 218.644 188.815 219.516C189.434 220.288 190.34 220.689 191.256 220.689ZM225.624 242.576C226.927 242.576 228.14 241.757 228.583 240.456C229.14 238.821 228.268 237.042 226.633 236.486C220.756 234.478 214.849 231.524 208.581 227.444C207.13 226.503 205.196 226.913 204.256 228.36C203.318 229.808 203.727 231.743 205.171 232.69C211.881 237.055 218.243 240.234 224.618 242.407C224.952 242.52 225.29 242.576 225.624 242.576Z" fill="#CC5500"/>
</svg>
